<?xml version="1.0" encoding="UTF-8"?>
<svg id="Layer_1" data-name="Layer 1" xmlns="http://www.w3.org/2000/svg" xmlns:xlink="http://www.w3.org/1999/xlink" version="1.1" viewBox="0 0 2500 2500">
  <defs>
    <style>
      .cls-1 {
        font-family: ColonnaMT, 'Colonna MT';
        font-size: 368px;
      }

      .cls-1, .cls-2 {
        isolation: isolate;
      }

      .cls-1, .cls-3 {
        fill: #fff;
      }

      .cls-3 {
        stroke-width: 0px;
      }
    </style>
  </defs>
  <image id="Background" class="cls-2" width="2480" height="3508" transform="translate(10 -504)" xlink:href="LOGOKHAIYYARA-1.png"/>
  <text id="KHAIYYARA" class="cls-1" transform="translate(202.4 1545.1)"><tspan x="0" y="0">KHAIYYARA</tspan></text>
  <image id="wax-seal-3D-model_0" data-name="wax-seal-3D-model 0" class="cls-2" width="707" height="713" transform="translate(898 545)" xlink:href="LOGOKHAIYYARA-2.png"/>
  <image id="_1200px-Devanagari_kh.svg" data-name=" 1200px-Devanagari kh.svg" class="cls-2" width="294" height="251" transform="translate(1122.8 783)" xlink:href="LOGOKHAIYYARA-3.png"/>
  <g id="JIMBARAN_-_BALI" data-name="JIMBARAN - BALI" class="cls-2">
    <path class="cls-3" d="M789.8,1623.5h12.4v63.8c0,25.4-12.4,33.2-28.9,33.2s-10.1-1-13.2-2.2l1.8-10.1c2.6,1,6.2,1.8,10.4,1.8,11,0,17.4-5,17.4-23.7v-62.8Z"/>
    <path class="cls-3" d="M835,1623.5v95.5h-12.4v-95.5h12.4Z"/>
    <path class="cls-3" d="M937.1,1677.1c-.7-13.3-1.6-29.4-1.5-41.2h-.4c-3.3,11.1-7.2,23.1-12,36.2l-16.9,46.3h-9.3l-15.6-45.5c-4.5-13.5-8.3-25.7-10.9-37h-.3c-.3,11.9-1,27.8-1.9,42.1l-2.5,41h-11.7l6.6-95.5h15.8l16.3,46.2c3.9,11.7,7.1,22.2,9.6,32.2h.4c2.5-9.7,5.8-20.2,10.1-32.2l17-46.2h15.8l5.9,95.5h-12.1l-2.3-41.9Z"/>
    <path class="cls-3" d="M970.4,1624.8c5.5-1.2,14-2.1,22.5-2.1,12.4,0,20.3,2.1,26.2,6.9,4.9,3.7,8,9.4,8,16.9s-6.1,17.4-16.1,20.9v.4c9.1,2.2,19.7,9.7,19.7,24s-3.2,14.5-8.2,19c-6.6,6.2-17.3,9-33,9s-15-.6-19.2-1.1v-93.9ZM982.7,1663.9h11.3c12.9,0,20.6-6.9,20.6-16.1s-8.4-15.6-20.9-15.6-9,.4-11,.9v30.8ZM982.7,1709.6c2.5.5,5.9.6,10.4.6,12.8,0,24.6-4.7,24.6-18.6s-11.2-18.4-24.7-18.4h-10.3v36.4Z"/>
    <path class="cls-3" d="M1062.5,1689l-9.9,30h-12.8l32.5-95.5h14.8l32.6,95.5h-13.2l-10.2-30h-33.8ZM1093.9,1679.3l-9.5-27.5c-2.1-6.2-3.5-11.9-4.9-17.4h-.3c-1.4,5.6-2.9,11.4-4.7,17.3l-9.4,27.6h28.8Z"/>
    <path class="cls-3" d="M1133.7,1624.8c6.3-1.3,15.2-2.1,23.7-2.1,13.1,0,21.7,2.5,27.7,7.9,4.7,4.2,7.5,10.7,7.5,18.2,0,12.5-8,20.9-18,24.3v.3c7.3,2.6,11.7,9.4,14,19.3,3.1,13.3,5.4,22.5,7.3,26.2h-12.8c-1.5-2.8-3.7-10.9-6.3-22.9-2.8-13.1-8-18.1-19.2-18.5h-11.7v41.4h-12.3v-94.2ZM1146.1,1668.3h12.6c13.2,0,21.6-7.2,21.6-18.1s-8.9-17.8-22-17.8c-6,0-10.1.5-12.2,1.1v34.9Z"/>
    <path class="cls-3" d="M1226.2,1689l-9.9,30h-12.8l32.5-95.5h14.8l32.6,95.5h-13.2l-10.2-30h-33.8ZM1257.5,1679.3l-9.5-27.5c-2.1-6.2-3.5-11.9-4.9-17.4h-.3c-1.4,5.6-2.9,11.4-4.7,17.3l-9.4,27.6h28.8Z"/>
    <path class="cls-3" d="M1297.4,1719v-95.5h13.6l30.6,48.3c7,11.2,12.5,21.2,17,31.1h.3c-1.1-12.9-1.3-24.5-1.3-39.3v-40h11.6v95.5h-12.5l-30.3-48.4c-6.6-10.7-13-21.6-17.8-32h-.4c.7,12.2.9,23.8.9,39.5v40.8h-11.6Z"/>
    <path class="cls-3" d="M1449.1,1676.1v9.1h-35v-9.1h35Z"/>
    <path class="cls-3" d="M1494.1,1624.8c5.5-1.2,14-2.1,22.5-2.1,12.4,0,20.3,2.1,26.2,6.9,4.9,3.7,8,9.4,8,16.9s-6.1,17.4-16.1,20.9v.4c9.1,2.2,19.7,9.7,19.7,24s-3.2,14.5-8.2,19c-6.6,6.2-17.3,9-33,9s-15-.6-19.2-1.1v-93.9ZM1506.5,1663.9h11.3c12.9,0,20.5-6.9,20.5-16.1s-8.4-15.6-20.9-15.6-9,.4-11,.9v30.8ZM1506.5,1709.6c2.5.5,5.9.6,10.4.6,12.8,0,24.6-4.7,24.6-18.6s-11.2-18.4-24.7-18.4h-10.3v36.4Z"/>
    <path class="cls-3" d="M1586.3,1689l-9.9,30h-12.8l32.5-95.5h14.8l32.6,95.5h-13.2l-10.2-30h-33.8ZM1617.6,1679.3l-9.5-27.5c-2.1-6.2-3.5-11.9-4.9-17.4h-.3c-1.4,5.6-2.9,11.4-4.7,17.3l-9.4,27.6h28.8Z"/>
    <path class="cls-3" d="M1657.5,1623.5h12.4v85.1h40.8v10.4h-53.2v-95.5Z"/>
    <path class="cls-3" d="M1736.7,1623.5v95.5h-12.4v-95.5h12.4Z"/>
  </g>
</svg>